<svg xmlns="http://www.w3.org/2000/svg" xmlns:xlink="http://www.w3.org/1999/xlink" viewBox="0 0 162 40"><path d="M 71 0 L 77.033 0 L 77.033 29.4 L 71 29.4 Z" fill="rgb(10,14,9)"></path><path d="M 80.466 19.333 C 80.466 13.333 85.233 8.7 91.133 8.7 C 97.066 8.7 101.799 13.333 101.799 19.333 C 101.799 25.333 97.033 29.967 91.133 29.967 C 85.199 29.967 80.466 25.333 80.466 19.333 Z M 95.766 19.333 C 95.766 16.467 93.766 14.567 91.133 14.567 C 88.499 14.567 86.499 16.467 86.499 19.333 C 86.499 22.2 88.499 24.1 91.133 24.1 C 93.733 24.067 95.766 22.2 95.766 19.333 Z" fill="rgb(10,14,9)"></path><path d="M 46 19.333 C 46 13.333 50.767 8.7 56.667 8.7 C 62.6 8.7 67.333 13.333 67.333 19.333 C 67.333 25.333 62.567 29.967 56.667 29.967 C 50.733 29.967 46 25.333 46 19.333 Z M 61.3 19.333 C 61.3 16.467 59.3 14.567 56.667 14.567 C 54.033 14.567 52.033 16.467 52.033 19.333 C 52.033 22.2 54.033 24.1 56.667 24.1 C 59.267 24.067 61.3 22.2 61.3 19.333 Z" fill="rgb(10,14,9)"></path><path d="M 129.698 3.867 C 129.698 1.9 131.364 0.233 133.331 0.233 C 135.298 0.233 136.964 1.9 136.964 3.867 C 136.964 5.833 135.298 7.5 133.331 7.5 C 131.364 7.5 129.698 5.833 129.698 3.867 Z M 130.298 9.267 L 136.364 9.267 L 136.364 29.4 L 130.331 29.4 L 130.331 9.267 Z" fill="rgb(10,14,9)"></path><path d="M 161.431 9.267 L 161.431 29.4 L 155.397 29.4 L 155.397 27.5 C 154.064 29.033 152.097 29.967 149.397 29.967 C 144.131 29.967 139.764 25.333 139.764 19.333 C 139.764 13.333 144.097 8.7 149.397 8.7 C 152.097 8.7 154.064 9.633 155.397 11.167 L 155.397 9.267 Z M 155.397 19.333 C 155.397 16.3 153.397 14.433 150.597 14.433 C 147.831 14.433 145.797 16.333 145.797 19.333 C 145.797 22.367 147.797 24.233 150.597 24.233 C 153.397 24.233 155.397 22.333 155.397 19.333 Z" fill="rgb(10,14,9)"></path><path d="M 11.233 24.567 C 12.9 24.567 14.3 23.933 15.1 23.033 L 19.933 25.8 C 17.967 28.533 14.967 29.933 11.167 29.933 C 4.267 29.933 0 25.3 0 19.3 C 0 13.3 4.333 8.667 10.7 8.667 C 16.567 8.667 20.933 13.233 20.933 19.3 C 20.933 20.133 20.867 20.967 20.7 21.7 L 6.4 21.7 C 7.167 23.833 9.033 24.567 11.233 24.567 Z M 14.967 17.233 C 14.333 14.9 12.5 14.067 10.7 14.067 C 8.4 14.067 6.867 15.2 6.3 17.233 Z" fill="rgb(10,14,9)"></path><path d="M 125.832 8.7 L 114.965 8.7 C 109.065 8.7 104.299 13.333 104.299 19.333 C 104.299 25.333 109.065 29.967 114.965 29.967 C 120.899 29.967 125.632 25.333 125.632 19.333 C 125.632 16.967 124.899 14.833 123.665 13.1 L 125.832 13.1 Z M 114.965 24.067 C 112.332 24.067 110.332 22.167 110.332 19.3 C 110.332 16.433 112.332 14.533 114.965 14.533 C 117.599 14.533 119.599 16.433 119.599 19.3 C 119.599 22.2 117.599 24.067 114.965 24.067 Z" fill="rgb(236,216,37)"></path><path d="M 114.965 35.067 C 112.065 35.067 109.332 34.267 106.998 32.9 L 104.532 37.167 C 107.598 38.967 111.165 40 114.932 40 C 118.732 40 122.298 38.967 125.332 37.167 L 122.865 32.9 C 120.598 34.267 117.865 35.067 114.965 35.067 Z" fill="rgb(236,216,37)"></path><path d="M 22.333 9.354 L 29.104 9.354 L 33.581 24.08 L 38.058 9.354 L 44.792 9.354 L 37.466 30 L 29.659 30 Z" fill="rgb(0,0,0)"></path></svg>